<svg width="31" height="30" viewBox="0 0 31 30" fill="none" xmlns="http://www.w3.org/2000/svg">
<path d="M3.875 23.75C5.64222 22.7626 7.64689 22.2428 9.6875 22.2428C11.7281 22.2428 13.7328 22.7626 15.5 23.75C17.2672 22.7626 19.2719 22.2428 21.3125 22.2428C23.3531 22.2428 25.3578 22.7626 27.125 23.75" stroke="#6D747C" stroke-width="2.5" stroke-linecap="round" stroke-linejoin="round"/>
<path d="M3.875 7.5C5.64222 6.5126 7.64689 5.99278 9.6875 5.99278C11.7281 5.99278 13.7328 6.5126 15.5 7.5C17.2672 6.5126 19.2719 5.99278 21.3125 5.99278C23.3531 5.99278 25.3578 6.5126 27.125 7.5" stroke="#6D747C" stroke-width="2.5" stroke-linecap="round" stroke-linejoin="round"/>
<path d="M3.875 7.5V23.75" stroke="#6D747C" stroke-width="2.5" stroke-linecap="round" stroke-linejoin="round"/>
<path d="M15.5 7.5V23.75" stroke="#6D747C" stroke-width="2.5" stroke-linecap="round" stroke-linejoin="round"/>
<path d="M27.125 7.5V23.75" stroke="#6D747C" stroke-width="2.5" stroke-linecap="round" stroke-linejoin="round"/>
</svg>
