<svg width="33" height="31" viewBox="0 0 33 31" fill="none" xmlns="http://www.w3.org/2000/svg">
<path d="M6.875 9.04167C6.875 10.412 7.45446 11.7261 8.48591 12.6951C9.51736 13.664 10.9163 14.2083 12.375 14.2083C13.8337 14.2083 15.2326 13.664 16.2641 12.6951C17.2955 11.7261 17.875 10.412 17.875 9.04167C17.875 7.67138 17.2955 6.35722 16.2641 5.38828C15.2326 4.41934 13.8337 3.875 12.375 3.875C10.9163 3.875 9.51736 4.41934 8.48591 5.38828C7.45446 6.35722 6.875 7.67138 6.875 9.04167Z" stroke="#6D747C" stroke-width="2.5" stroke-linecap="round" stroke-linejoin="round"/>
<path d="M4.125 27.125V24.5417C4.125 23.1714 4.70446 21.8572 5.73591 20.8883C6.76736 19.9193 8.16631 19.375 9.625 19.375H15.125C16.5837 19.375 17.9826 19.9193 19.0141 20.8883C20.0455 21.8572 20.625 23.1714 20.625 24.5417V27.125" stroke="#6D747C" stroke-width="2.5" stroke-linecap="round" stroke-linejoin="round"/>
<path d="M22 4.04291C23.1831 4.32746 24.2317 4.97381 24.9805 5.88006C25.7293 6.7863 26.1358 7.9009 26.1358 9.04812C26.1358 10.1953 25.7293 11.3099 24.9805 12.2162C24.2317 13.1224 23.1831 13.7688 22 14.0533" stroke="#6D747C" stroke-width="2.5" stroke-linecap="round" stroke-linejoin="round"/>
<path d="M28.875 27.125V24.5416C28.868 23.4013 28.4596 22.2952 27.7135 21.3957C26.9674 20.4961 25.9254 19.8538 24.75 19.5687" stroke="#6D747C" stroke-width="2.5" stroke-linecap="round" stroke-linejoin="round"/>
</svg>
